<?xml version="1.0" standalone="no"?><!DOCTYPE svg PUBLIC "-//W3C//DTD SVG 1.1//EN" "http://www.w3.org/Graphics/SVG/1.1/DTD/svg11.dtd"><svg t="1634136805148" class="icon" viewBox="0 0 1024 1024" version="1.1" xmlns="http://www.w3.org/2000/svg" p-id="5902" xmlns:xlink="http://www.w3.org/1999/xlink" width="300" height="300"><defs><style type="text/css">@font-face { font-family: MR-Camphor; font-weight: 400; font-style: normal; src: url("chrome-extension://knjbgabkeojmfdhindppcmhhfiembkeb/public/Camphor W04 Regular.ttf") format("truetype"); }
@font-face { font-family: MR-Camphor; font-weight: 400; font-style: italic; src: url("chrome-extension://knjbgabkeojmfdhindppcmhhfiembkeb/public/Camphor W04 Regular.ttf") format("truetype"); }
@font-face { font-family: MR-Camphor; font-weight: 700; font-style: normal; src: url("chrome-extension://knjbgabkeojmfdhindppcmhhfiembkeb/public/Camphor-Bold.ttf") format("truetype"); }
@font-face { font-family: MR-Camphor; font-weight: 700; font-style: italic; src: url("chrome-extension://knjbgabkeojmfdhindppcmhhfiembkeb/public/Camphor-Bold.ttf") format("truetype"); }
@font-face { font-family: MR-Camphor; font-weight: 900; font-style: normal; src: url("chrome-extension://knjbgabkeojmfdhindppcmhhfiembkeb/public/Camphor-Heavy.ttf") format("truetype"); }
@font-face { font-family: MR-Camphor; font-weight: 900; font-style: italic; src: url("chrome-extension://knjbgabkeojmfdhindppcmhhfiembkeb/public/Camphor-Heavy.ttf") format("truetype"); }
@font-face { font-family: MR-Bookerly; font-weight: 400; src: url("chrome-extension://knjbgabkeojmfdhindppcmhhfiembkeb/public/Bookerly-Regular.ttf") format("truetype"); }
</style></defs><path d="M600.560485 431.941818a31.030303 31.030303 0 0 1 31.030303-31.030303h310.30303a31.030303 31.030303 0 0 1 0 62.060606h-310.30303a31.030303 31.030303 0 0 1-31.030303-31.030303zM600.560485 556.06303a31.030303 31.030303 0 0 1 31.030303-31.030303h310.30303a31.030303 31.030303 0 0 1 0 62.060606h-310.30303a31.030303 31.030303 0 0 1-31.030303-31.030303zM600.560485 680.184242a31.030303 31.030303 0 0 1 31.030303-31.030303h310.30303a31.030303 31.030303 0 0 1 0 62.060606h-310.30303a31.030303 31.030303 0 0 1-31.030303-31.030303zM259.227152 804.305455a31.030303 31.030303 0 0 1 31.030303-31.030303h651.636363a31.030303 31.030303 0 0 1 0 62.060606h-651.636363a31.030303 31.030303 0 0 1-31.030303-31.030303zM321.008485 338.850909a155.151515 155.151515 0 1 0 150.59006 192.698182 31.030303 31.030303 0 1 1 60.198788 15.018667 217.243152 217.243152 0 1 1-210.788848-269.777455 31.030303 31.030303 0 1 1 0 62.060606z" fill="#303133" p-id="5903"></path><path d="M321.039515 441.561212a31.030303 31.030303 0 0 1 31.030303 31.030303l-0.248242 207.189333a31.030303 31.030303 0 0 1-62.060606-0.06206l0.217212-207.158303a31.030303 31.030303 0 0 1 31.061333-31.030303zM126.448485 225.186909a108.606061 108.606061 0 0 1 70.438788-25.972364 31.030303 31.030303 0 0 1 16.44606 4.716607l239.647031 149.783272a46.545455 46.545455 0 0 0-7.850667-92.439272 31.030303 31.030303 0 1 1 0-62.060607 108.606061 108.606061 0 1 1 0 217.212122 31.030303 31.030303 0 0 1-16.446061-4.716606L189.067636 261.926788a46.545455 46.545455 0 0 0-6.702545 90.14303 31.030303 31.030303 0 1 1-19.42497 58.957576 108.606061 108.606061 0 0 1-36.491636-185.871515z" fill="#303133" p-id="5904"></path></svg>